<?xml version="1.0" encoding="utf-8"?>
<!-- Generator: Adobe Illustrator 25.0.0, SVG Export Plug-In . SVG Version: 6.00 Build 0)  -->
<svg version="1.1" id="Layer_1" xmlns="http://www.w3.org/2000/svg" xmlns:xlink="http://www.w3.org/1999/xlink" x="0px" y="0px"
	 viewBox="0 0 555 422" style="enable-background:new 0 0 555 422;" xml:space="preserve">
<style type="text/css">
	.st0{fill:#ABD1C6;stroke:#001E1D;stroke-width:3;}
	.st1{fill-opacity:0.2;}
	.st2{fill:#E1E1DE;stroke:#001E1D;stroke-width:3;}
	.st3{fill:#FFFFFF;stroke:#001E1D;stroke-width:3;}
	.st4{fill:#E8E4E6;stroke:#001E1D;stroke-width:3;}
	.st5{fill:#001E1D;}
	.st6{fill:#F9BC60;stroke:#001E1D;stroke-width:3;}
	.st7{fill-rule:evenodd;clip-rule:evenodd;fill-opacity:0.2;}
	.st8{fill:#E16162;stroke:#001E1D;stroke-width:3;}
	.st9{fill:none;stroke:#001E1D;stroke-width:3;stroke-linecap:round;}
	.st10{fill:none;stroke:#001E1D;stroke-width:3;}
	.st11{fill:#00684A;}
	.st12{fill:#001E2B;stroke:#001E2B;stroke-width:0.75;stroke-miterlimit:10;}
	.st13{fill:#00ED64;stroke:#231F20;stroke-width:0.75;stroke-miterlimit:10;}
	.st14{fill:none;stroke:#231F20;stroke-miterlimit:10;}
	.st15{fill:#001E2B;stroke:#001E2B;stroke-miterlimit:10;}
	.st16{fill:#FFFFFF;stroke:#231F20;stroke-miterlimit:10;}
	.st17{fill:none;stroke:#B1FF05;stroke-miterlimit:10;}
	.st18{fill:#001E2B;stroke:#001E2B;stroke-linecap:round;stroke-linejoin:round;}
	.st19{fill:#B1FF05;stroke:#001E2B;stroke-miterlimit:10;}
	.st20{fill:#FFFFFF;stroke:#001E2B;stroke-miterlimit:10;}
	.st21{fill:#023430;}
	.st22{fill:#023430;stroke:#001E2B;stroke-miterlimit:10;}
</style>
<path class="st0" d="M38,1.5h445c3,0,5.5,2.5,5.5,5.5v344c0,3-2.5,5.5-5.5,5.5H38c-3,0-5.5-2.5-5.5-5.5V7C32.5,4,35,1.5,38,1.5z"/>
<path class="st1" d="M380,110h34c3.9,0,7,3.1,7,7v238.5h-41V110z"/>
<path class="st2" d="M7,89.5h389c3,0,5.5,2.5,5.5,5.5v320c0,3-2.5,5.5-5.5,5.5H7c-3,0-5.5-2.5-5.5-5.5V95C1.5,92,4,89.5,7,89.5z"/>
<path class="st3" d="M30,118.5h224c1.9,0,3.5,1.6,3.5,3.5v272c0,1.9-1.6,3.5-3.5,3.5H30c-1.9,0-3.5-1.6-3.5-3.5V122
	C26.5,120.1,28.1,118.5,30,118.5z"/>
<path class="st4" d="M275,118.5h23c1.9,0,3.5,1.6,3.5,3.5v272c0,1.9-1.6,3.5-3.5,3.5h-23c-1.9,0-3.5-1.6-3.5-3.5V122
	C271.5,120.1,273.1,118.5,275,118.5z"/>
<path class="st5" d="M265,371.9c0-0.8,0.9-1.3,1.6-0.8l5.1,3.4c0.6,0.4,0.6,1.3-0.1,1.7l-5.1,3c-0.7,0.4-1.5-0.1-1.5-0.9V371.9z"/>
<path class="st5" d="M309,371.9c0-0.8-0.9-1.3-1.6-0.8l-5.1,3.4c-0.6,0.4-0.6,1.3,0.1,1.7l5.1,3c0.7,0.4,1.5-0.1,1.5-0.9V371.9z"/>
<path class="st0" d="M319,177.5h56c1.9,0,3.5,1.6,3.5,3.5v40c0,1.9-1.6,3.5-3.5,3.5h-56c-1.9,0-3.5-1.6-3.5-3.5v-40
	C315.5,179.1,317.1,177.5,319,177.5z"/>
<path class="st6" d="M319,118.5h56c1.9,0,3.5,1.6,3.5,3.5v40c0,1.9-1.6,3.5-3.5,3.5h-56c-1.9,0-3.5-1.6-3.5-3.5v-40
	C315.5,120.1,317.1,118.5,319,118.5z"/>
<circle class="st4" cx="54.5" cy="24.5" r="6"/>
<circle class="st4" cx="75.5" cy="24.5" r="6"/>
<circle class="st4" cx="96.5" cy="24.5" r="6"/>
<path class="st7" d="M489,39.7c-2.1,2.7-5.9,3.5-9,1.8l-5.1-2.9c-4.7-2.6-10.4,0.8-10.4,6.1v5.1c0,3.9-3.1,7-7,7h-5.9
	c-5.3,0-8.7,5.6-6.2,10.3l3.3,6.2c1.8,3.3,0.6,7.4-2.6,9.3l-4.9,3c-4.6,2.7-4.5,9.4,0.1,12.1l4.8,2.8c3.2,1.8,4.4,5.9,2.8,9.2
	l-2.4,4.8c-2.3,4.7,1,10.1,6.3,10.1h4.7c3.9,0,7,3.1,7,7v4.3c0,5.3,5.6,8.7,10.3,6.2l5.4-2.9c3-1.6,6.7-0.8,8.8,1.8V39.7z"/>
<path class="st8" d="M493.3,20.4l3.5,5.6c2.4,3.8,7.4,5.1,11.4,2.9l5.2-2.9c3.7-2,8.2,0.6,8.2,4.8v5.7c0,4.4,3.4,8.1,7.8,8.5
	l5.6,0.5c4.1,0.4,6.4,5,4.1,8.5l-2.9,4.5c-2.6,4.1-1.3,9.5,2.9,11.9l4.6,2.7c3.7,2.1,3.6,7.5-0.1,9.6l-4.5,2.5
	c-4.2,2.3-5.6,7.7-3.2,11.8l1.5,2.5c2.2,3.7-0.5,8.3-4.7,8.3h-4.2c-4.7,0-8.5,3.8-8.5,8.5v5.4c0,4.2-4.6,6.9-8.2,4.8l-3.7-2.1
	c-3.9-2.2-8.9-1.1-11.3,2.7l-3.5,5.3c-2.2,3.3-7.1,3.3-9.2-0.1l-3.3-5.2c-2.4-3.8-7.3-5-11.2-2.9l-5.4,2.9c-3.7,2-8.1-0.7-8.1-4.8
	v-4.3c0-4.7-3.8-8.5-8.5-8.5h-4.7c-4.1,0-6.8-4.3-4.9-8l2.4-4.8c2-4,0.5-8.9-3.4-11.2l-4.8-2.8c-3.6-2.1-3.7-7.3-0.1-9.5l4.9-3
	c3.9-2.3,5.3-7.3,3.1-11.3l-3.3-6.2c-2-3.7,0.7-8.1,4.8-8.1h5.9c4.7,0,8.5-3.8,8.5-8.5v-5.1c0-4.2,4.5-6.9,8.2-4.8l5.1,2.9
	c4,2.2,9.1,0.9,11.4-3l3.2-5.3C486,17,491.1,17,493.3,20.4z"/>
<circle class="st6" cx="488.5" cy="76.5" r="44"/>
<path class="st9" d="M504,65c0-2.8-2.2-5-5-5s-5,2.2-5,5"/>
<path class="st9" d="M486,69c0,2.8-2.2,5-5,5s-5-2.2-5-5"/>
<path class="st9" d="M468,65c0-2.8-2.2-5-5-5s-5,2.2-5,5"/>
<path class="st10" d="M32,47h405"/>
<circle class="st6" cx="321.5" cy="247.5" r="6"/>
<path class="st9" d="M337,248h41.5"/>
<circle class="st4" cx="321.5" cy="303.5" r="6"/>
<path class="st9" d="M337,304h41.5"/>
<circle class="st4" cx="169" cy="336" r="6.5"/>
<circle class="st4" cx="321.5" cy="275.5" r="6"/>
<path class="st9" d="M337,276h41.5"/>
<path class="st9" d="M158,336h4"/>
<path class="st9" d="M176,336h4"/>
<path class="st9" d="M169,347v-4"/>
<path class="st9" d="M169,328v-4"/>
<g>
	<path class="st11" d="M89.1,155.7c0,7.6-2.8,14.9-7.8,20.2c-5,5.4-11.8,8.4-18.8,8.4v0.2c-7.1,0-13.8,3-18.8,8.4
		s-7.8,12.6-7.8,20.2l1.3,57.4c0,3.8,0.7,7.5,2,10.9s3.3,6.6,5.8,9.3c2.5,2.7,5.4,4.8,8.6,6.2c3.2,1.4,6.7,2.2,10.2,2.2v0.1
		c7.1,0,13.8,3,18.8,8.4s7.8,12.6,7.8,20.2c0,7.6,2.8,14.9,7.8,20.2c5,5.4,11.8,8.4,18.8,8.4H194c14-0.1,27.4-6.2,37.3-16.9
		c9.9-10.7,15.4-25.1,15.4-40.2c0-15-5.5-29.5-15.4-40.2c-9.9-10.7-23.3-16.7-37.3-16.9l-24.8-0.4c-3.5,0-7-0.7-10.2-2.2
		s-6.2-3.5-8.6-6.2c-2.5-2.7-4.4-5.8-5.8-9.3s-2-7.2-2-10.9v-56.6c0-7.6-2.8-14.9-7.8-20.2c-5-5.4-11.8-8.4-18.8-8.4
		C101.2,128.2,89.1,139.9,89.1,155.7z"/>
	<path class="st12" d="M96.9,314v10.6c0,11.3,21,20.4,46.9,20.4s46.9-9.2,46.9-20.4V314H96.9z"/>
	<path class="st13" d="M96.9,280v39.5c0,11.3,21,20.4,46.9,20.4s46.9-9.2,46.9-20.4V280c0-11.3-21-20.4-46.9-20.4
		S96.9,268.7,96.9,280z"/>
	<path class="st14" d="M190.8,280v39.5c0,11.3-21,20.4-46.9,20.4s-46.9-9.2-46.9-20.4V280"/>
	<path class="st14" d="M190.8,300.2c0,11.3-21,20.4-46.9,20.4s-46.9-9.2-46.9-20.4"/>
	<path class="st15" d="M181.6,267.9v63.7c5.7-3.4,9.1-7.6,9.1-12.1V280C190.8,275.5,187.4,271.3,181.6,267.9z"/>
	<path class="st16" d="M143.8,300.5c25.9,0,46.9-9.2,46.9-20.4c0-11.3-21-20.4-46.9-20.4c-25.9,0-46.9,9.2-46.9,20.4
		C96.9,291.3,117.9,300.5,143.8,300.5z"/>
	<path class="st17" d="M89.5,251H73.8"/>
	<path class="st18" d="M58.7,255.6v-6.9c1.9,0,3.4-0.6,4.4-1.9c1-1.2,1.5-4,1.5-8.2c0-3.2,0.1-5.6,0.3-7.2c0.2-1.4,0.7-2.8,1.6-3.9
		c0.9-1.1,2-1.9,3.3-2.3c1.4-0.5,3.3-0.7,5.8-0.7H77v6.9c-2.6,0-4.1,0.3-4.7,0.9c-0.5,0.6-0.8,1.7-0.8,3.4c-0.1,4.6-0.2,7.6-0.4,9
		c-0.2,1.4-0.6,2.7-1.2,4c-0.6,1.3-1.8,2.5-3.4,3.6c1.4,0.9,2.6,2.2,3.5,3.7c0.7,1.4,1.2,3.5,1.3,6.2l0.4,8.4c0.1,0.4,0.2,0.7,0.4,1
		s0.5,0.6,0.8,0.8c0.6,0.4,2,0.6,4.2,0.6v6.9h-1.4c-2.9,0-5.1-0.3-6.6-1c-1.5-0.6-2.7-1.9-3.4-3.4c-0.7-1.6-1-4.2-1-7.7
		c0-3.9-0.1-6.4-0.4-7.5c-0.3-1.1-0.8-2.1-1.5-3C62,256.2,60.7,255.7,58.7,255.6z"/>
	<path class="st19" d="M56.5,253.3v-6.9c1.9,0,3.4-0.6,4.4-1.9c1-1.2,1.5-4,1.5-8.2c0-2.4,0.1-4.8,0.3-7.2c0.2-1.4,0.7-2.8,1.6-3.9
		c0.9-1.1,2-1.9,3.3-2.3c1.4-0.5,3.3-0.7,5.8-0.7h1.4v6.9c-2.6,0-4.1,0.3-4.7,0.9c-0.5,0.6-0.8,1.7-0.8,3.4c-0.1,4.6-0.2,7.6-0.4,9
		c-0.2,1.4-0.6,2.7-1.2,4c-0.6,1.3-1.8,2.5-3.4,3.6c1.5,0.9,2.7,2.2,3.5,3.7c0.7,1.4,1.1,3.5,1.3,6.2l0.4,8.4c0.1,0.4,0.2,0.7,0.4,1
		c0.2,0.3,0.5,0.6,0.8,0.8c0.6,0.4,2,0.6,4.2,0.6v6.9h-1.4c-2.9,0-5.1-0.3-6.6-1c-1.5-0.6-2.7-1.9-3.4-3.4c-0.7-1.6-1-4.2-1-7.7
		c0-3.9-0.1-6.4-0.4-7.5c-0.3-1.1-0.8-2.1-1.4-3C59.9,253.9,58.5,253.4,56.5,253.3z"/>
	<path class="st17" d="M198.5,251h15.7"/>
	<path class="st18" d="M229.1,257.1c-0.7,0.9-1.2,1.9-1.5,3c-0.2,1.1-0.4,3.6-0.4,7.5c0,3.6-0.3,6.1-1,7.7c-0.7,1.6-1.9,2.8-3.4,3.4
		c-1.6,0.7-3.8,1-6.6,1h-1.4v-6.9c2.2,0,3.6-0.2,4.2-0.6c0.3-0.2,0.6-0.5,0.8-0.8c0.2-0.3,0.3-0.7,0.4-1l0.4-8.4
		c0.1-2.7,0.6-4.8,1.3-6.2c0.8-1.5,2-2.8,3.5-3.7c-1.7-1.2-2.8-2.4-3.4-3.6c-0.6-1.2-1-2.6-1.2-4c-0.2-1.4-0.3-4.4-0.4-9
		c0-1.7-0.3-2.8-0.8-3.4c-0.5-0.6-2.1-0.9-4.6-0.9v-6.9h1.4c2.5,0,4.4,0.2,5.8,0.7c1.3,0.4,2.4,1.2,3.3,2.3c0.9,1.1,1.4,2.5,1.6,3.9
		c0.2,1.6,0.3,4,0.3,7.2c0,4.3,0.5,7,1.5,8.2c1,1.2,2.5,1.8,4.4,1.9v6.9C231.2,255.7,229.8,256.2,229.1,257.1z"/>
	<path class="st19" d="M227.1,254.8c-0.7,0.9-1.2,1.9-1.4,3c-0.3,1.1-0.4,3.6-0.4,7.5c0,3.6-0.4,6.1-1,7.7c-0.7,1.6-1.9,2.8-3.4,3.4
		c-1.6,0.7-3.8,1-6.6,1h-1.4v-6.9c2.2,0,3.6-0.2,4.2-0.6c0.3-0.2,0.6-0.5,0.8-0.8c0.2-0.3,0.3-0.7,0.4-1l0.4-8.4
		c0.1-2.7,0.5-4.8,1.3-6.2c0.8-1.6,2-2.8,3.5-3.7c-1.7-1.2-2.8-2.4-3.4-3.6c-0.6-1.2-1-2.6-1.2-4c-0.2-1.4-0.3-4.4-0.4-9
		c0-1.7-0.3-2.8-0.8-3.4c-0.5-0.6-2.1-0.9-4.7-0.9v-6.9h1.4c2.5,0,4.4,0.2,5.8,0.7c1.3,0.4,2.4,1.2,3.3,2.3c0.9,1.1,1.4,2.5,1.6,3.9
		c0.3,2.4,0.4,4.8,0.3,7.2c0,4.3,0.5,7,1.5,8.2c1,1.2,2.4,1.8,4.4,1.9v6.9C229.1,253.4,227.8,253.9,227.1,254.8z"/>
	<path class="st19" d="M135.2,274.2v7.3c0,2.1,3.9,3.8,8.7,3.8c4.8,0,8.7-1.7,8.7-3.8v-7.3c0-2.1-3.9-3.8-8.7-3.8
		C139,270.5,135.2,272.1,135.2,274.2z"/>
	<path class="st15" d="M148,270.9l-1.7,14.2c3.6-0.5,6.2-1.9,6.2-3.6v-7.3C152.5,272.8,150.7,271.6,148,270.9z"/>
	<path class="st14" d="M190.8,221.9c0-11.3-21-20.4-46.9-20.4s-46.9,9.2-46.9,20.4"/>
	<path class="st13" d="M96.9,218.4v39.5c0,11.3,21,20.4,46.9,20.4s46.9-9.2,46.9-20.4v-39.5c0-11.3-21-20.4-46.9-20.4
		S96.9,207.2,96.9,218.4z"/>
	<path class="st15" d="M181.6,206.3v63.7c5.7-3.4,9.1-7.6,9.1-12.1v-39.5C190.8,213.9,187.4,209.7,181.6,206.3z"/>
	<path class="st16" d="M143.8,238.9c25.9,0,46.9-9.2,46.9-20.4c0-11.3-21-20.4-46.9-20.4c-25.9,0-46.9,9.2-46.9,20.4
		C96.9,229.7,117.9,238.9,143.8,238.9z"/>
	<path class="st14" d="M190.8,218.4v39.5c0,11.3-21,20.4-46.9,20.4s-46.9-9.2-46.9-20.4v-39.5"/>
	<path class="st19" d="M135.2,212.7v7.3c0,2.1,3.9,3.8,8.7,3.8c4.8,0,8.7-1.7,8.7-3.8v-7.3c0-2.1-3.9-3.8-8.7-3.8
		C139,208.9,135.2,210.6,135.2,212.7z"/>
	<path class="st15" d="M148,209.3l-1.7,14.2c3.6-0.5,6.2-1.9,6.2-3.6v-7.3C152.5,211.2,150.7,210,148,209.3z"/>
	<path class="st13" d="M96.9,156.9v39.5c0,11.3,21,20.4,46.9,20.4s46.9-9.2,46.9-20.4v-39.5c0-11.3-21-20.4-46.9-20.4
		S96.9,145.6,96.9,156.9z"/>
	<path class="st14" d="M190.8,156.9c0-11.3-21-20.4-46.9-20.4s-46.9,9.2-46.9,20.4"/>
	<path class="st14" d="M190.8,156.9v39.5c0,11.3-21,20.4-46.9,20.4s-46.9-9.2-46.9-20.4v-39.5"/>
	<path class="st14" d="M190.8,176.6c0,11.3-21,20.4-46.9,20.4s-46.9-9.2-46.9-20.4"/>
	<path class="st14" d="M190.8,238.2c0,11.3-21,20.4-46.9,20.4s-46.9-9.2-46.9-20.4"/>
	<path class="st15" d="M181.6,144.7v63.7c5.7-3.4,9.1-7.6,9.1-12.1v-39.5C190.8,152.3,187.4,148.1,181.6,144.7z"/>
	<path class="st16" d="M143.8,177.3c25.9,0,46.9-9.2,46.9-20.4s-21-20.4-46.9-20.4c-25.9,0-46.9,9.2-46.9,20.4
		S117.9,177.3,143.8,177.3z"/>
	<path class="st17" d="M92.7,187.7v5.9"/>
	<path class="st17" d="M92.7,161v23.6"/>
	<path class="st17" d="M195.5,294.1v-5.9"/>
	<path class="st17" d="M195.5,320.9v-23.6"/>
	<path class="st20" d="M114,378.8c3.3,0,5.9-2.8,5.9-6.3c0-3.5-2.6-6.3-5.9-6.3c-3.3,0-5.9,2.8-5.9,6.3
		C108.1,375.9,110.7,378.8,114,378.8z"/>
	<path class="st21" d="M110.4,377.5c0,0,7.4-2.8,8.4-8.6c1.3,1.8,1.8,6-0.9,8.3C115.1,379.4,112.4,378.7,110.4,377.5z"/>
	<path class="st22" d="M204.6,148.9l-5.4-6l2.6-9l5.5,5.7L204.6,148.9z"/>
	<path class="st20" d="M204.6,148.9l7.6-1.6l2.6-9l-7.6,1.3L204.6,148.9z"/>
	<path class="st20" d="M209.3,132.8l-7.5,1.2l5.5,5.7l7.6-1.3L209.3,132.8z"/>
	<path class="st13" d="M199.8,341.6v20.3c0,5.8,10.8,10.5,24.2,10.5c13.3,0,24.2-4.7,24.2-10.5v-20.3c0-5.8-10.8-10.5-24.2-10.5
		C210.7,331,199.8,335.7,199.8,341.6z"/>
	<path class="st14" d="M248.2,341.6v20.3c0,5.8-10.8,10.5-24.2,10.5c-13.3,0-24.2-4.7-24.2-10.5v-20.3"/>
	<path class="st14" d="M248.2,351.7c0,5.8-10.8,10.5-24.2,10.5c-13.3,0-24.2-4.7-24.2-10.5"/>
	<path class="st15" d="M243.5,335.3v32.8c3-1.7,4.7-3.9,4.7-6.3v-20.3C248.2,339.2,246.4,337.1,243.5,335.3z"/>
	<path class="st16" d="M224,352.1c13.3,0,24.2-4.7,24.2-10.5c0-5.8-10.8-10.5-24.2-10.5c-13.3,0-24.2,4.7-24.2,10.5
		C199.8,347.4,210.7,352.1,224,352.1z"/>
	<path class="st13" d="M199.8,321.5v20.3c0,5.8,10.8,10.5,24.2,10.5c13.3,0,24.2-4.7,24.2-10.5v-20.3c0-5.8-10.8-10.5-24.2-10.5
		C210.7,311,199.8,315.7,199.8,321.5z"/>
	<path class="st14" d="M248.2,321.5v20.3c0,5.8-10.8,10.5-24.2,10.5c-13.3,0-24.2-4.7-24.2-10.5v-20.3"/>
	<path class="st14" d="M248.2,331.7c0,5.8-10.8,10.5-24.2,10.5c-13.3,0-24.2-4.7-24.2-10.5"/>
	<path class="st15" d="M243.5,315.3v32.8c3-1.7,4.7-3.9,4.7-6.3v-20.3C248.2,319.2,246.4,317,243.5,315.3z"/>
	<path class="st16" d="M224,332.1c13.3,0,24.2-4.7,24.2-10.5c0-5.8-10.8-10.5-24.2-10.5c-13.3,0-24.2,4.7-24.2,10.5
		C199.8,327.3,210.7,332.1,224,332.1z"/>
	<path class="st13" d="M199.8,301.4v20.3c0,5.8,10.8,10.5,24.2,10.5c13.3,0,24.2-4.7,24.2-10.5v-20.3c0-5.8-10.8-10.5-24.2-10.5
		C210.7,290.8,199.8,295.6,199.8,301.4z"/>
	<path class="st14" d="M248.2,301.4v20.3c0,5.8-10.8,10.5-24.2,10.5c-13.3,0-24.2-4.7-24.2-10.5v-20.3"/>
	<path class="st14" d="M248.2,311.5c0,5.8-10.8,10.5-24.2,10.5c-13.3,0-24.2-4.7-24.2-10.5"/>
	<path class="st15" d="M243.5,295.1V328c3-1.7,4.7-3.9,4.7-6.3v-20.3C248.2,299,246.4,296.9,243.5,295.1z"/>
	<path class="st16" d="M224,311.9c13.3,0,24.2-4.7,24.2-10.5c0-5.8-10.8-10.5-24.2-10.5c-13.3,0-24.2,4.7-24.2,10.5
		C199.8,307.2,210.7,311.9,224,311.9z"/>
	<path class="st13" d="M41.6,341.6v20.3c0,5.8,10.8,10.5,24.2,10.5c13.3,0,24.2-4.7,24.2-10.5v-20.3c0-5.8-10.8-10.5-24.2-10.5
		S41.6,335.7,41.6,341.6z"/>
	<path class="st14" d="M89.9,341.6v20.3c0,5.8-10.8,10.5-24.2,10.5c-13.3,0-24.2-4.7-24.2-10.5v-20.3"/>
	<path class="st14" d="M89.9,351.7c0,5.8-10.8,10.5-24.2,10.5c-13.3,0-24.2-4.7-24.2-10.5"/>
	<path class="st15" d="M85.2,335.3v32.8c3-1.7,4.7-3.9,4.7-6.3v-20.3C89.9,339.2,88.1,337.1,85.2,335.3z"/>
	<path class="st16" d="M65.7,352.1c13.3,0,24.2-4.7,24.2-10.5c0-5.8-10.8-10.5-24.2-10.5c-13.3,0-24.2,4.7-24.2,10.5
		C41.6,347.4,52.4,352.1,65.7,352.1z"/>
	<path class="st13" d="M41.6,321.5v20.3c0,5.8,10.8,10.5,24.2,10.5c13.3,0,24.2-4.7,24.2-10.5v-20.3c0-5.8-10.8-10.5-24.2-10.5
		S41.6,315.7,41.6,321.5z"/>
	<path class="st14" d="M89.9,321.5v20.3c0,5.8-10.8,10.5-24.2,10.5c-13.3,0-24.2-4.7-24.2-10.5v-20.3"/>
	<path class="st14" d="M89.9,331.7c0,5.8-10.8,10.5-24.2,10.5c-13.3,0-24.2-4.7-24.2-10.5"/>
	<path class="st15" d="M85.2,315.3v32.8c3-1.7,4.7-3.9,4.7-6.3v-20.3C89.9,319.2,88.1,317,85.2,315.3z"/>
	<path class="st16" d="M65.7,332.1c13.3,0,24.2-4.7,24.2-10.5c0-5.8-10.8-10.5-24.2-10.5c-13.3,0-24.2,4.7-24.2,10.5
		C41.6,327.3,52.4,332.1,65.7,332.1z"/>
	<path class="st13" d="M41.6,301.4v20.3c0,5.8,10.8,10.5,24.2,10.5c13.3,0,24.2-4.7,24.2-10.5v-20.3c0-5.8-10.8-10.5-24.2-10.5
		S41.6,295.6,41.6,301.4z"/>
	<path class="st14" d="M89.9,301.4v20.3c0,5.8-10.8,10.5-24.2,10.5c-13.3,0-24.2-4.7-24.2-10.5v-20.3"/>
	<path class="st14" d="M89.9,311.5c0,5.8-10.8,10.5-24.2,10.5c-13.3,0-24.2-4.7-24.2-10.5"/>
	<path class="st15" d="M85.2,295.1V328c3-1.7,4.7-3.9,4.7-6.3v-20.3C89.9,299,88.1,296.9,85.2,295.1z"/>
	<path class="st16" d="M65.7,311.9c13.3,0,24.2-4.7,24.2-10.5c0-5.8-10.8-10.5-24.2-10.5c-13.3,0-24.2,4.7-24.2,10.5
		C41.6,307.2,52.4,311.9,65.7,311.9z"/>
</g>
</svg>
