<svg xmlns="http://www.w3.org/2000/svg" viewBox="0 0 547.89 422"><defs><style>.cls-1{fill:#abd1c6;}.cls-1,.cls-10,.cls-11,.cls-3,.cls-4,.cls-5,.cls-7,.cls-9{stroke:#001e1d;stroke-width:3px;}.cls-2,.cls-8{fill-opacity:0.2;}.cls-3{fill:#e1e1de;}.cls-17,.cls-21,.cls-4{fill:#fff;}.cls-5{fill:#e8e4e6;}.cls-6{fill:#001e1d;}.cls-7{fill:#f9bc60;}.cls-8{fill-rule:evenodd;}.cls-9{fill:#e16162;}.cls-10,.cls-11,.cls-15,.cls-18{fill:none;}.cls-10,.cls-19{stroke-linecap:round;}.cls-12{fill:#00684a;}.cls-13,.cls-16,.cls-19{fill:#001e2b;}.cls-13,.cls-16,.cls-19,.cls-20,.cls-21,.cls-23{stroke:#001e2b;}.cls-13,.cls-14,.cls-15,.cls-16,.cls-17,.cls-18,.cls-20,.cls-21,.cls-23{stroke-miterlimit:10;}.cls-13,.cls-14{stroke-width:0.75px;}.cls-14{fill:#00ed64;}.cls-14,.cls-15,.cls-17{stroke:#231f20;}.cls-18{stroke:#b1ff05;}.cls-19{stroke-linejoin:round;}.cls-20{fill:#b1ff05;}.cls-22,.cls-23{fill:#023430;}</style></defs><g id="Layer_2" data-name="Layer 2"><g id="Layer_1-2" data-name="Layer 1"><rect class="cls-1" x="32.5" y="1.5" width="456" height="355" rx="5.5"/><path class="cls-2" d="M380,110h34a7,7,0,0,1,7,7V355.5H380Z"/><rect class="cls-3" x="1.5" y="89.5" width="400" height="331" rx="5.5"/><rect class="cls-4" x="26.5" y="118.5" width="231" height="279" rx="3.5"/><rect class="cls-5" x="271.5" y="118.5" width="30" height="279" rx="3.5"/><path class="cls-6" d="M265,371.88a1,1,0,0,1,1.56-.84l5.11,3.43a1,1,0,0,1-.06,1.7l-5.11,3a1,1,0,0,1-1.5-.86Z"/><path class="cls-6" d="M309,371.88a1,1,0,0,0-1.56-.84l-5.11,3.43a1,1,0,0,0,.06,1.7l5.11,3a1,1,0,0,0,1.5-.86Z"/><rect class="cls-1" x="315.5" y="177.5" width="63" height="47" rx="3.5"/><rect class="cls-7" x="315.5" y="118.5" width="63" height="47" rx="3.5"/><circle class="cls-5" cx="75.5" cy="24.5" r="6"/><circle class="cls-5" cx="96.5" cy="24.5" r="6"/><path class="cls-8" d="M489,39.73a7,7,0,0,1-9,1.83l-5.12-2.87A7,7,0,0,0,464.5,44.8v5.07a7,7,0,0,1-7,7h-5.9a7,7,0,0,0-6.17,10.31l3.35,6.24a7,7,0,0,1-2.58,9.31l-4.94,3a7,7,0,0,0,.11,12.08l4.82,2.76a7,7,0,0,1,2.78,9.22l-2.42,4.81a7,7,0,0,0,6.26,10.14h4.69a7,7,0,0,1,7,7V136a7,7,0,0,0,10.3,6.17l5.43-2.9a7,7,0,0,1,8.77,1.81Z"/><path class="cls-9" d="M493.3,20.45,496.8,26a8.51,8.51,0,0,0,11.35,2.9L513.39,26a5.5,5.5,0,0,1,8.18,4.8v5.66a8.5,8.5,0,0,0,7.75,8.47l5.64.5a5.49,5.49,0,0,1,4.14,8.45l-2.87,4.46a8.5,8.5,0,0,0,2.87,11.94L543.66,73a5.5,5.5,0,0,1-.09,9.55L539.09,85a8.51,8.51,0,0,0-3.15,11.78l1.51,2.53a5.5,5.5,0,0,1-4.72,8.32H528.5a8.51,8.51,0,0,0-8.5,8.5v5.4a5.5,5.5,0,0,1-8.25,4.76l-3.68-2.12a8.49,8.49,0,0,0-11.34,2.68l-3.5,5.29a5.49,5.49,0,0,1-9.23-.09l-3.29-5.19a8.5,8.5,0,0,0-11.19-2.94l-5.43,2.9A5.5,5.5,0,0,1,456,122V117.7a8.5,8.5,0,0,0-8.5-8.5h-4.69a5.51,5.51,0,0,1-4.92-8l2.42-4.81a8.51,8.51,0,0,0-3.37-11.19l-4.82-2.76A5.5,5.5,0,0,1,432,73L437,70a8.49,8.49,0,0,0,3.13-11.31l-3.35-6.24a5.5,5.5,0,0,1,4.85-8.1h5.9a8.51,8.51,0,0,0,8.5-8.5V30.8a5.5,5.5,0,0,1,8.18-4.8l5.13,2.87a8.49,8.49,0,0,0,11.43-3l3.19-5.3A5.5,5.5,0,0,1,493.3,20.45Z"/><circle class="cls-7" cx="488.5" cy="76.5" r="44"/><path class="cls-10" d="M504,65a5,5,0,0,0-10,0"/><path class="cls-10" d="M486,69a5,5,0,0,1-10,0"/><path class="cls-10" d="M468,65a5,5,0,0,0-10,0"/><path class="cls-11" d="M32,47H437"/><circle class="cls-7" cx="321.5" cy="247.5" r="6"/><path class="cls-10" d="M337,248h41.5"/><circle class="cls-5" cx="321.5" cy="303.5" r="6"/><path class="cls-10" d="M337,304h41.5"/><circle class="cls-5" cx="169" cy="336" r="6.5"/><circle class="cls-5" cx="321.5" cy="275.5" r="6"/><path class="cls-10" d="M337,276h41.5"/><path class="cls-10" d="M158,336h4"/><path class="cls-10" d="M176,336h4"/><path class="cls-10" d="M169,347v-4"/><path class="cls-10" d="M169,328v-4"/><path class="cls-12" d="M89.12,155.71a29.73,29.73,0,0,1-7.8,20.23,25.75,25.75,0,0,1-18.85,8.38v.21a25.72,25.72,0,0,0-18.84,8.38,29.69,29.69,0,0,0-7.81,20.23l1.32,57.42a30.46,30.46,0,0,0,2,10.95A28.8,28.8,0,0,0,45,290.79a26.7,26.7,0,0,0,8.64,6.2,25.07,25.07,0,0,0,10.2,2.18v.1a25.75,25.75,0,0,1,18.85,8.38,29.7,29.7,0,0,1,7.8,20.23,29.76,29.76,0,0,0,7.81,20.23,25.78,25.78,0,0,0,18.85,8.37H194a51.33,51.33,0,0,0,37.28-16.85,60,60,0,0,0,0-80.31A51.41,51.41,0,0,0,194,242.47l-24.81-.41a25,25,0,0,1-10.2-2.18,26.85,26.85,0,0,1-8.65-6.2,29,29,0,0,1-5.77-9.28,30.42,30.42,0,0,1-2-11V156.84a29.68,29.68,0,0,0-7.81-20.22,25.76,25.76,0,0,0-18.84-8.39C101.15,128.25,89.12,139.91,89.12,155.71Z"/><path class="cls-13" d="M96.92,314v10.59c0,11.29,21,20.45,46.92,20.45s46.92-9.16,46.92-20.45V314Z"/><path class="cls-14" d="M96.92,280v39.49c0,11.29,21,20.44,46.92,20.44s46.92-9.15,46.92-20.44V280c0-11.3-21-20.45-46.92-20.45S96.92,268.73,96.92,280Z"/><path class="cls-15" d="M190.76,280v39.49c0,11.29-21,20.44-46.92,20.44s-46.92-9.15-46.92-20.44V280"/><path class="cls-15" d="M190.76,300.21c0,11.29-21,20.44-46.92,20.44s-46.92-9.15-46.92-20.44"/><path class="cls-16" d="M181.63,267.91v63.72c5.74-3.39,9.13-7.58,9.13-12.12V280C190.76,275.49,187.37,271.3,181.63,267.91Z"/><path class="cls-17" d="M143.84,300.48c25.91,0,46.92-9.16,46.92-20.45s-21-20.45-46.92-20.45S96.92,268.74,96.92,280,117.93,300.48,143.84,300.48Z"/><path class="cls-18" d="M89.5,251H73.79"/><path class="cls-19" d="M58.71,255.64v-6.91a5.4,5.4,0,0,0,4.4-1.86c1-1.22,1.49-4,1.48-8.22a59.6,59.6,0,0,1,.32-7.22,7.94,7.94,0,0,1,1.62-3.93,7.19,7.19,0,0,1,3.33-2.28,18.38,18.38,0,0,1,5.76-.7h1.43v6.88c-2.59,0-4.14.29-4.66.87a5.48,5.48,0,0,0-.82,3.37c-.1,4.6-.24,7.6-.41,9a12.26,12.26,0,0,1-1.18,4,9.93,9.93,0,0,1-3.45,3.61A9.64,9.64,0,0,1,70,255.91a15.82,15.82,0,0,1,1.28,6.22l.4,8.38a2.92,2.92,0,0,0,.4,1,2.7,2.7,0,0,0,.75.79c.61.41,2,.62,4.19.62v6.89H75.64a16.69,16.69,0,0,1-6.63-1,6.53,6.53,0,0,1-3.38-3.44q-1-2.4-1-7.72a44.3,44.3,0,0,0-.38-7.51,7.7,7.7,0,0,0-1.45-3C62.05,256.21,60.7,255.72,58.71,255.64Z"/><path class="cls-20" d="M56.54,253.32V246.4a5.38,5.38,0,0,0,4.4-1.85q1.48-1.83,1.47-8.23a56,56,0,0,1,.33-7.21,7.72,7.72,0,0,1,1.62-3.93,7.23,7.23,0,0,1,3.32-2.29,18.8,18.8,0,0,1,5.77-.7h1.42v6.89c-2.59,0-4.14.29-4.65.86a5.45,5.45,0,0,0-.82,3.37c-.11,4.61-.25,7.6-.42,9a12.41,12.41,0,0,1-1.18,4,9.89,9.89,0,0,1-3.44,3.61,9.58,9.58,0,0,1,3.51,3.71,16,16,0,0,1,1.27,6.22l.4,8.37a2.9,2.9,0,0,0,.4,1.05,2.73,2.73,0,0,0,.76.79c.61.41,2,.62,4.18.61v6.92H73.49a16.67,16.67,0,0,1-6.63-1.05,6.43,6.43,0,0,1-3.38-3.44c-.7-1.59-1-4.17-1-7.71a44.87,44.87,0,0,0-.37-7.52,7.66,7.66,0,0,0-1.45-3C59.89,253.9,58.53,253.4,56.54,253.32Z"/><path class="cls-18" d="M198.49,251H214.2"/><path class="cls-19" d="M229.13,257.12a7.66,7.66,0,0,0-1.45,3,45.61,45.61,0,0,0-.38,7.52c0,3.55-.34,6.12-1,7.72a6.53,6.53,0,0,1-3.38,3.44,16.88,16.88,0,0,1-6.63,1h-1.39v-6.92c2.18,0,3.57-.2,4.18-.61a2.73,2.73,0,0,0,.76-.79,2.91,2.91,0,0,0,.39-1l.41-8.38a15.84,15.84,0,0,1,1.27-6.22,9.67,9.67,0,0,1,3.48-3.72,10.09,10.09,0,0,1-3.45-3.61,12.41,12.41,0,0,1-1.18-4c-.17-1.39-.31-4.38-.42-9a5.45,5.45,0,0,0-.82-3.37c-.51-.57-2.06-.85-4.64-.85v-6.88h1.42a18.8,18.8,0,0,1,5.77.69,7.31,7.31,0,0,1,3.33,2.29,7.83,7.83,0,0,1,1.61,3.93,53.44,53.44,0,0,1,.33,7.22q0,6.39,1.47,8.22a5.4,5.4,0,0,0,4.4,1.86v6.91C231.19,255.71,229.85,256.21,229.13,257.12Z"/><path class="cls-20" d="M227.08,254.8a7.51,7.51,0,0,0-1.44,3,43.29,43.29,0,0,0-.38,7.51q0,5.34-1,7.72a6.43,6.43,0,0,1-3.38,3.44,16.58,16.58,0,0,1-6.62,1h-1.4v-6.91c2.18,0,3.58-.2,4.19-.61a2.7,2.7,0,0,0,.75-.79,2.73,2.73,0,0,0,.4-1.05l.4-8.37a15.82,15.82,0,0,1,1.28-6.22,9.5,9.5,0,0,1,3.47-3.72,10,10,0,0,1-3.44-3.61,12.43,12.43,0,0,1-1.19-4q-.24-2.08-.41-9a5.62,5.62,0,0,0-.82-3.37c-.5-.58-2.06-.86-4.65-.86v-6.9h1.42a18.49,18.49,0,0,1,5.77.7,7.23,7.23,0,0,1,3.32,2.29,7.81,7.81,0,0,1,1.62,3.93,57.82,57.82,0,0,1,.33,7.21q0,6.39,1.47,8.22a5.36,5.36,0,0,0,4.4,1.86v6.91C229.14,253.39,227.8,253.9,227.08,254.8Z"/><path class="cls-20" d="M135.16,274.24v7.3c0,2.08,3.88,3.78,8.68,3.78s8.69-1.7,8.69-3.78v-7.3c0-2.09-3.89-3.79-8.69-3.79S135.16,272.15,135.16,274.24Z"/><path class="cls-16" d="M148,270.92l-1.65,14.24c3.56-.47,6.17-1.91,6.17-3.62v-7.29C152.53,272.81,150.7,271.56,148,270.92Z"/><path class="cls-15" d="M190.76,221.92c0-11.29-21-20.45-46.92-20.45s-46.92,9.16-46.92,20.45"/><path class="cls-14" d="M96.92,218.45v39.48c0,11.29,21,20.45,46.92,20.45s46.92-9.16,46.92-20.45V218.45c0-11.3-21-20.45-46.92-20.45S96.92,207.15,96.92,218.45Z"/><path class="cls-16" d="M181.63,206.32v63.73c5.74-3.39,9.13-7.58,9.13-12.12V218.45C190.76,213.91,187.37,209.71,181.63,206.32Z"/><path class="cls-17" d="M143.84,238.9c25.91,0,46.92-9.16,46.92-20.45S169.75,198,143.84,198s-46.92,9.15-46.92,20.45S117.93,238.9,143.84,238.9Z"/><path class="cls-15" d="M190.76,218.45v39.48c0,11.29-21,20.45-46.92,20.45s-46.92-9.16-46.92-20.45V218.45"/><path class="cls-20" d="M135.16,212.65V220c0,2.09,3.88,3.78,8.68,3.78s8.69-1.69,8.69-3.78v-7.3c0-2.08-3.89-3.78-8.69-3.78S135.16,210.56,135.16,212.65Z"/><path class="cls-16" d="M148,209.33l-1.65,14.25c3.56-.47,6.17-1.91,6.17-3.62v-7.3C152.53,211.22,150.7,210,148,209.33Z"/><path class="cls-14" d="M96.92,156.86v39.49c0,11.29,21,20.45,46.92,20.45s46.92-9.16,46.92-20.45V156.86c0-11.29-21-20.45-46.92-20.45S96.92,145.57,96.92,156.86Z"/><path class="cls-15" d="M190.76,156.86c0-11.29-21-20.45-46.92-20.45s-46.92,9.16-46.92,20.45"/><path class="cls-15" d="M190.76,156.86v39.49c0,11.29-21,20.44-46.92,20.44s-46.92-9.15-46.92-20.44V156.86"/><path class="cls-15" d="M190.76,176.6c0,11.3-21,20.45-46.92,20.45S96.92,187.9,96.92,176.6"/><path class="cls-15" d="M190.76,238.19c0,11.29-21,20.45-46.92,20.45s-46.92-9.16-46.92-20.45"/><path class="cls-16" d="M181.63,144.74v63.73c5.74-3.39,9.13-7.59,9.13-12.12V156.86C190.76,152.33,187.37,148.13,181.63,144.74Z"/><path class="cls-17" d="M143.84,177.31c25.91,0,46.92-9.16,46.92-20.45s-21-20.45-46.92-20.45-46.92,9.16-46.92,20.45S117.93,177.31,143.84,177.31Z"/><path class="cls-18" d="M92.73,187.73v5.91"/><path class="cls-18" d="M92.73,161v23.59"/><path class="cls-18" d="M195.54,294.11v-5.9"/><path class="cls-18" d="M195.54,320.85V297.27"/><path class="cls-21" d="M114,378.77a6.36,6.36,0,1,0-5.91-6.34A6.13,6.13,0,0,0,114,378.77Z"/><path class="cls-22" d="M110.43,377.5s7.41-2.76,8.42-8.65c1.29,1.82,1.82,6-.94,8.28S112.44,378.67,110.43,377.5Z"/><path class="cls-23" d="M204.57,148.92,199.13,143l2.62-9,5.51,5.69Z"/><path class="cls-21" d="M204.59,148.93l7.62-1.57,2.62-9-7.55,1.32Z"/><path class="cls-21" d="M209.27,132.77,201.75,134l5.53,5.7,7.55-1.32Z"/><path class="cls-14" d="M199.85,341.57V361.9c0,5.81,10.81,10.53,24.16,10.53s24.15-4.72,24.15-10.53V341.57c0-5.82-10.81-10.53-24.15-10.53S199.85,335.75,199.85,341.57Z"/><path class="cls-15" d="M248.18,341.57V361.9c0,5.81-10.82,10.53-24.16,10.53s-24.16-4.72-24.16-10.53V341.57"/><path class="cls-15" d="M248.18,351.73c0,5.82-10.82,10.53-24.16,10.53s-24.16-4.71-24.16-10.53"/><path class="cls-16" d="M243.46,335.32v32.82c3-1.74,4.7-3.91,4.7-6.26V341.57C248.18,339.23,246.42,337.07,243.46,335.32Z"/><path class="cls-17" d="M224,352.1c13.35,0,24.16-4.72,24.16-10.53S237.35,331,224,331s-24.16,4.71-24.16,10.53S210.66,352.1,224,352.1Z"/><path class="cls-14" d="M199.85,321.53v20.33c0,5.82,10.81,10.53,24.16,10.53s24.15-4.71,24.15-10.53V321.53c0-5.82-10.81-10.53-24.15-10.53S199.85,315.71,199.85,321.53Z"/><path class="cls-15" d="M248.18,321.53v20.33c0,5.82-10.82,10.53-24.16,10.53s-24.16-4.71-24.16-10.53V321.53"/><path class="cls-15" d="M248.18,331.7c0,5.81-10.82,10.52-24.16,10.52s-24.16-4.71-24.16-10.52"/><path class="cls-16" d="M243.46,315.3v32.81c3-1.74,4.7-3.9,4.7-6.25V321.53C248.18,319.19,246.42,317,243.46,315.3Z"/><path class="cls-17" d="M224,332.06c13.35,0,24.16-4.72,24.16-10.53S237.35,311,224,311s-24.16,4.71-24.16,10.53S210.66,332.06,224,332.06Z"/><path class="cls-14" d="M199.85,301.38v20.33c0,5.82,10.81,10.53,24.16,10.53s24.15-4.71,24.15-10.53V301.38c0-5.82-10.81-10.53-24.15-10.53S199.85,295.56,199.85,301.38Z"/><path class="cls-15" d="M248.18,301.38v20.33c0,5.82-10.82,10.53-24.16,10.53s-24.16-4.71-24.16-10.53V301.38"/><path class="cls-15" d="M248.18,311.54c0,5.82-10.82,10.53-24.16,10.53s-24.16-4.71-24.16-10.53"/><path class="cls-16" d="M243.46,295.14V328c3-1.74,4.7-3.91,4.7-6.26V301.38C248.18,299,246.42,296.88,243.46,295.14Z"/><path class="cls-17" d="M224,311.91c13.35,0,24.16-4.71,24.16-10.53S237.35,290.85,224,290.85s-24.16,4.72-24.16,10.53S210.66,311.91,224,311.91Z"/><path class="cls-14" d="M41.57,341.57V361.9c0,5.81,10.81,10.53,24.15,10.53s24.16-4.72,24.16-10.53V341.57c0-5.82-10.81-10.53-24.16-10.53S41.57,335.75,41.57,341.57Z"/><path class="cls-15" d="M89.88,341.57V361.9c0,5.81-10.82,10.53-24.16,10.53s-24.16-4.72-24.16-10.53V341.57"/><path class="cls-15" d="M89.88,351.73c0,5.82-10.82,10.53-24.16,10.53s-24.16-4.71-24.16-10.53"/><path class="cls-16" d="M85.18,335.32v32.82c3-1.74,4.7-3.91,4.7-6.26V341.57C89.88,339.23,88.14,337.07,85.18,335.32Z"/><path class="cls-17" d="M65.72,352.1c13.34,0,24.16-4.72,24.16-10.53S79.06,331,65.72,331s-24.16,4.71-24.16,10.53S52.38,352.1,65.72,352.1Z"/><path class="cls-14" d="M41.57,321.53v20.33c0,5.82,10.81,10.53,24.15,10.53s24.16-4.71,24.16-10.53V321.53c0-5.82-10.81-10.53-24.16-10.53S41.57,315.71,41.57,321.53Z"/><path class="cls-15" d="M89.88,321.53v20.33c0,5.82-10.82,10.53-24.16,10.53s-24.16-4.71-24.16-10.53V321.53"/><path class="cls-15" d="M89.88,331.7c0,5.81-10.82,10.52-24.16,10.52s-24.16-4.71-24.16-10.52"/><path class="cls-16" d="M85.18,315.3v32.81c3-1.74,4.7-3.9,4.7-6.25V321.53C89.88,319.19,88.14,317,85.18,315.3Z"/><path class="cls-17" d="M65.72,332.06c13.34,0,24.16-4.72,24.16-10.53S79.06,311,65.72,311s-24.16,4.71-24.16,10.53S52.38,332.06,65.72,332.06Z"/><path class="cls-14" d="M41.57,301.38v20.33c0,5.82,10.81,10.53,24.15,10.53s24.16-4.71,24.16-10.53V301.38c0-5.82-10.81-10.53-24.16-10.53S41.57,295.56,41.57,301.38Z"/><path class="cls-15" d="M89.88,301.38v20.33c0,5.82-10.82,10.53-24.16,10.53s-24.16-4.71-24.16-10.53V301.38"/><path class="cls-15" d="M89.88,311.54c0,5.82-10.82,10.53-24.16,10.53s-24.16-4.71-24.16-10.53"/><path class="cls-16" d="M85.18,295.14V328c3-1.74,4.7-3.91,4.7-6.26V301.38C89.88,299,88.14,296.88,85.18,295.14Z"/><path class="cls-17" d="M65.72,311.91c13.34,0,24.16-4.71,24.16-10.53s-10.82-10.53-24.16-10.53-24.16,4.72-24.16,10.53S52.38,311.91,65.72,311.91Z"/></g></g></svg>